<?xml version="1.0" encoding="utf-8"?>
<!-- Generator: Adobe Illustrator 26.3.1, SVG Export Plug-In . SVG Version: 6.00 Build 0)  -->
<svg version="1.1" id="Layer_1" xmlns="http://www.w3.org/2000/svg" xmlns:xlink="http://www.w3.org/1999/xlink" x="0px" y="0px"
	 width="175.536px" height="45.842px" viewBox="0 0 175.536 45.842" enable-background="new 0 0 175.536 45.842"
	 xml:space="preserve">
<g>
	<g>
		<polygon points="17.524,24.338 4.084,0.002 0.004,35.282 4.084,35.282 6.58,12.578 17.524,32.162 28.467,12.578 30.963,35.282 
			35.044,35.282 30.963,0.002 		"/>
		<polygon points="47.694,28.418 41.524,13.202 36.963,13.202 45.412,32.162 39.363,45.842 43.684,45.842 58.084,13.202 
			53.763,13.202 		"/>
		<rect x="61.922" y="1.682" width="4.08" height="33.6"/>
		<path d="M91.083,19.37c-0.849-0.784-1.769-1.432-2.76-1.944c-0.992-0.512-1.937-0.928-2.832-1.248
			c-1.952-0.672-3.497-1.352-4.632-2.04c-1.136-0.688-1.944-1.423-2.424-2.208c-0.48-0.784-0.72-1.64-0.72-2.568
			c0-1.087,0.416-2.072,1.248-2.952c0.832-0.88,2.16-1.32,3.984-1.32c1.312,0,2.424,0.256,3.336,0.768
			c0.912,0.512,1.688,1.168,2.328,1.968c0.64,0.8,1.167,1.616,1.584,2.448l3.504-2.016c-0.544-1.184-1.296-2.312-2.256-3.384
			c-0.96-1.072-2.12-1.951-3.48-2.64c-1.361-0.688-2.952-1.032-4.776-1.032c-1.889,0-3.569,0.376-5.04,1.128
			c-1.473,0.752-2.625,1.784-3.456,3.096c-0.833,1.312-1.248,2.8-1.248,4.464c0,1.536,0.295,2.832,0.888,3.888
			c0.592,1.056,1.352,1.944,2.28,2.664c0.928,0.72,1.903,1.312,2.928,1.776c1.024,0.464,1.952,0.84,2.784,1.128
			c1.279,0.449,2.488,0.953,3.624,1.512c1.135,0.56,2.056,1.288,2.76,2.184c0.704,0.896,1.056,2.097,1.056,3.6
			c0,1.536-0.544,2.801-1.632,3.792c-1.088,0.992-2.528,1.488-4.32,1.488c-1.344,0-2.544-0.288-3.6-0.864
			c-1.056-0.576-2.009-1.375-2.856-2.4c-0.849-1.024-1.656-2.208-2.424-3.552l-3.264,2.208c0.735,1.472,1.688,2.856,2.856,4.152
			c1.167,1.296,2.527,2.336,4.08,3.12c1.552,0.784,3.24,1.176,5.064,1.176c1.344,0,2.631-0.224,3.864-0.672
			c1.231-0.448,2.335-1.087,3.312-1.92c0.976-0.832,1.744-1.84,2.304-3.024c0.559-1.183,0.84-2.512,0.84-3.984
			c0-1.536-0.272-2.856-0.816-3.96C92.626,21.098,91.93,20.155,91.083,19.37z"/>
		<path d="M117.386,19.37c-0.849-0.784-1.769-1.432-2.76-1.944c-0.992-0.512-1.937-0.928-2.832-1.248
			c-1.952-0.672-3.497-1.352-4.632-2.04c-1.136-0.688-1.944-1.423-2.424-2.208c-0.48-0.784-0.72-1.64-0.72-2.568
			c0-1.087,0.416-2.072,1.248-2.952c0.832-0.88,2.16-1.32,3.984-1.32c1.312,0,2.424,0.256,3.336,0.768
			c0.912,0.512,1.688,1.168,2.328,1.968c0.64,0.8,1.167,1.616,1.584,2.448l3.504-2.016c-0.544-1.184-1.296-2.312-2.256-3.384
			c-0.96-1.072-2.12-1.951-3.48-2.64c-1.361-0.688-2.952-1.032-4.776-1.032c-1.889,0-3.569,0.376-5.04,1.128
			c-1.473,0.752-2.625,1.784-3.456,3.096c-0.833,1.312-1.248,2.8-1.248,4.464c0,1.536,0.295,2.832,0.888,3.888
			c0.592,1.056,1.352,1.944,2.28,2.664c0.928,0.72,1.903,1.312,2.928,1.776c1.024,0.464,1.952,0.84,2.784,1.128
			c1.279,0.449,2.488,0.953,3.624,1.512c1.135,0.56,2.056,1.288,2.76,2.184c0.704,0.896,1.056,2.097,1.056,3.6
			c0,1.536-0.544,2.801-1.632,3.792c-1.088,0.992-2.528,1.488-4.32,1.488c-1.344,0-2.544-0.288-3.6-0.864
			c-1.056-0.576-2.009-1.375-2.856-2.4c-0.849-1.024-1.656-2.208-2.424-3.552l-3.264,2.208c0.735,1.472,1.688,2.856,2.856,4.152
			c1.167,1.296,2.527,2.336,4.08,3.12c1.552,0.784,3.24,1.176,5.064,1.176c1.344,0,2.631-0.224,3.864-0.672
			c1.231-0.448,2.335-1.087,3.312-1.92c0.976-0.832,1.744-1.84,2.304-3.024c0.559-1.183,0.84-2.512,0.84-3.984
			c0-1.536-0.272-2.856-0.816-3.96C118.93,21.098,118.233,20.155,117.386,19.37z"/>
		<path d="M144.818,24.242c0,2.304-0.624,4.16-1.872,5.568c-1.248,1.409-3.072,2.112-5.472,2.112s-4.224-0.704-5.472-2.112
			c-1.248-1.408-1.872-3.264-1.872-5.568V1.682h-4.08v22.56c0,1.664,0.264,3.2,0.792,4.608c0.528,1.409,1.296,2.625,2.304,3.648
			c1.008,1.025,2.216,1.824,3.624,2.4c1.408,0.576,2.976,0.864,4.704,0.864s3.295-0.288,4.704-0.864
			c1.408-0.576,2.616-1.375,3.624-2.4c1.008-1.023,1.776-2.239,2.304-3.648c0.528-1.408,0.792-2.944,0.792-4.608V1.682h-4.08V24.242
			z"/>
		<polygon points="175.538,5.522 175.538,1.682 160.418,1.682 158.594,1.682 156.337,1.682 156.337,35.282 158.594,35.282 
			160.418,35.282 175.538,35.282 175.538,31.442 160.418,31.442 160.418,18.962 168.022,18.962 168.022,15.122 160.418,15.122 
			160.418,5.522 		"/>
	</g>
</g>
</svg>
